<svg xmlns="http://www.w3.org/2000/svg" xmlns:xlink="http://www.w3.org/1999/xlink" width="1024" height="95" viewBox="0 0 1024 95">
  <defs>
    <clipPath id="clip-path">
      <rect width="18.056" height="14" fill="none"/>
    </clipPath>
    <clipPath id="clip-frontpage-header-layout-3">
      <rect width="1024" height="95"/>
    </clipPath>
  </defs>
  <g id="frontpage-header-layout-3" clip-path="url(#clip-frontpage-header-layout-3)">
    <rect width="1024" height="95" fill="#fff"/>
    <g id="Header_Main" data-name="Header Main" transform="translate(0.476 49)">
      <rect id="BG" width="1032.524" height="31" transform="translate(0 15)" fill="#eee"/>
      <g id="Menu_text" data-name="Menu text" transform="translate(102 27)">
        <path id="Path_7" data-name="Path 7" d="M86.376,0H5.022C2.009,0,0,1.587,0,3.808H0C0,6.03,2.009,7.617,4.821,7.617H86.175C88.987,7.617,91,6.03,91,3.808h0C91,1.587,88.987,0,86.376,0Z" fill="#707070"/>
        <path id="Path_8" data-name="Path 8" d="M118.4,0H54.921C52.109,0,50.1,1.587,50.1,3.808h0c0,2.222,2.009,3.808,4.821,3.808H118.4c2.812,0,4.821-1.587,4.821-3.808h0C123.218,1.587,121.209,0,118.4,0Z" transform="translate(50.538)" fill="#707070"/>
        <path id="Path_9" data-name="Path 9" d="M86.376,0H5.022C2.009,0,0,1.587,0,3.808H0C0,6.03,2.009,7.617,4.821,7.617H86.175C88.987,7.617,91,6.03,91,3.808h0C91,1.587,88.987,0,86.376,0Z" transform="translate(187.244)" fill="#707070"/>
        <path id="Path_10" data-name="Path 10" d="M118.4,0H54.921C52.109,0,50.1,1.587,50.1,3.808h0c0,2.222,2.009,3.808,4.821,3.808H118.4c2.812,0,4.821-1.587,4.821-3.808h0C123.218,1.587,121.209,0,118.4,0Z" transform="translate(237.782)" fill="#707070"/>
      </g>
    </g>
    <g id="Header_Top" data-name="Header Top" transform="translate(0 -130.602)">
      <g id="Notifications" transform="translate(90 121)">
        <path id="comment" d="M8.17,32C3.657,32,0,34.971,0,38.638A5.892,5.892,0,0,0,1.819,42.81,8.119,8.119,0,0,1,.07,45.867a.254.254,0,0,0-.048.278.25.25,0,0,0,.233.153,7.3,7.3,0,0,0,4.487-1.64,9.733,9.733,0,0,0,3.428.619c4.513,0,8.17-2.971,8.17-6.638S12.683,32,8.17,32Z" transform="translate(686.015 2)" fill="#7f7f7f"/>
        <path id="bell" d="M13.329,11.245C12.646,10.562,11.8,9.711,11.8,6.39A4.916,4.916,0,0,0,7.691,1.541a.983.983,0,1,0-1.618,0A4.916,4.916,0,0,0,1.966,6.39c0,3.321-.849,4.172-1.533,4.856a1.476,1.476,0,0,0,1.043,2.517H4.915a1.966,1.966,0,0,0,3.932,0h3.439A1.476,1.476,0,0,0,13.329,11.245ZM6.881,14.5a.246.246,0,0,1,0,.492,1.23,1.23,0,0,1-1.229-1.229h.492A.738.738,0,0,0,6.881,14.5Z" transform="translate(645.548 33)" fill="#7f7f7f"/>
      </g>
      <g id="Search_Form" data-name="Search Form" transform="translate(-33 141)">
        <rect id="Rectangle_4" data-name="Rectangle 4" width="25" height="24" transform="translate(712 9)" fill="#eee"/>
        <g id="Search" transform="translate(718.919 14.919)">
          <path id="search-2" data-name="search" d="M11.81,10.89,8.99,8.071a.276.276,0,0,0-.2-.081H8.486a4.83,4.83,0,1,0-.5.5v.307a.286.286,0,0,0,.081.2L10.89,11.81a.279.279,0,0,0,.395,0l.525-.525A.279.279,0,0,0,11.81,10.89ZM4.831,8.547A3.716,3.716,0,1,1,8.547,4.831,3.715,3.715,0,0,1,4.831,8.547Z" transform="translate(0)" fill="#707070"/>
        </g>
        <rect id="Rectangle_5" data-name="Rectangle 5" width="92" height="24" transform="translate(620 9)" fill="#f8f8f8"/>
      </g>
      <g id="Logo" transform="translate(-3 132)">
        <rect id="bg-2" data-name="bg" width="78.436" height="35.398" transform="translate(86 13.602)" fill="#f4f5f6"/>
        <path id="Path_1" data-name="Path 1" d="M38.215-24.247l-3.552-8.437L32-28.866l-4.085-7.727L22.5-24.247Z" transform="translate(92.784 62.585)" fill="#707070"/>
        <ellipse id="Ellipse_1" data-name="Ellipse 1" cx="2.59" cy="2.59" rx="2.59" ry="2.59" transform="translate(129.311 24.09)" fill="#707070"/>
      </g>
      <g id="Nav_drawer_button" data-name="Nav drawer button" transform="translate(24.972 135)">
        <g id="Repeat_Grid_1" data-name="Repeat Grid 1" transform="translate(16 23)" clip-path="url(#clip-path)">
          <g transform="translate(-34.5 -20.5)">
            <line id="Line_1" data-name="Line 1" x2="13" transform="translate(34.5 21.5)" fill="rgba(0,0,0,0)" stroke="#707070" stroke-width="2"/>
          </g>
          <g transform="translate(-21.5 -20.5)">
            <line id="Line_1-2" data-name="Line 1" x2="13" transform="translate(34.5 21.5)" fill="rgba(0,0,0,0)" stroke="#707070" stroke-width="2"/>
          </g>
          <g transform="translate(-34.5 -14.5)">
            <line id="Line_1-3" data-name="Line 1" x2="13" transform="translate(34.5 21.5)" fill="rgba(0,0,0,0)" stroke="#707070" stroke-width="2"/>
          </g>
          <g transform="translate(-21.5 -14.5)">
            <line id="Line_1-4" data-name="Line 1" x2="13" transform="translate(34.5 21.5)" fill="rgba(0,0,0,0)" stroke="#707070" stroke-width="2"/>
          </g>
          <g transform="translate(-34.5 -8.5)">
            <line id="Line_1-5" data-name="Line 1" x2="13" transform="translate(34.5 21.5)" fill="rgba(0,0,0,0)" stroke="#707070" stroke-width="2"/>
          </g>
          <g transform="translate(-21.5 -8.5)">
            <line id="Line_1-6" data-name="Line 1" x2="13" transform="translate(34.5 21.5)" fill="rgba(0,0,0,0)" stroke="#707070" stroke-width="2"/>
          </g>
        </g>
      </g>
      <g id="Usermenu" transform="translate(-878 140)">
        <g id="Default_icon" data-name="Default icon" transform="translate(9)">
          <circle id="Ellipse_2" data-name="Ellipse 2" cx="17" cy="17" r="17" transform="translate(1824 8)" fill="#dedede"/>
          <circle id="Ellipse_3" data-name="Ellipse 3" cx="9" cy="9" r="9" transform="translate(1832 28)" fill="#fff"/>
          <circle id="Ellipse_4" data-name="Ellipse 4" cx="6" cy="6" r="6" transform="translate(1835 18)" fill="#fff"/>
        </g>
        <path id="Carat" d="M7,0V7H0Z" transform="translate(1881.95 21) rotate(45)" fill="#707070"/>
        <g id="Group_4" data-name="Group 4" transform="translate(1716 24)">
          <path id="Path_7-2" data-name="Path 7" d="M54.434,0H3.165C1.266,0,0,1,0,2.4H0C0,3.8,1.266,4.8,3.038,4.8H54.307c1.772,0,3.038-1,3.038-2.4h0C57.345,1,56.079,0,54.434,0Z" fill="#707070"/>
          <path id="Path_8-2" data-name="Path 8" d="M93.14,0h-40C51.366,0,50.1,1,50.1,2.4h0c0,1.4,1.266,2.4,3.038,2.4h40c1.772,0,3.038-1,3.038-2.4h0C96.179,1,94.913,0,93.14,0Z" transform="translate(13.321)" fill="#707070"/>
        </g>
      </g>
    </g>
  </g>
</svg>
