<svg xmlns="http://www.w3.org/2000/svg" xmlns:xlink="http://www.w3.org/1999/xlink" viewBox="0 0 1024 88"><defs><style>.a{fill:none;}.b{clip-path:url(#e);}.c{fill:#fff;}.d{fill:#dedede;}.e{fill:#707070;}.f{fill:#f4f5f6;}.g{clip-path:url(#c);}.h{fill:rgba(0,0,0,0);stroke:#707070;stroke-width:2px;}.i{fill:#7f7f7f;}.j{filter:url(#a);}</style><filter id="a" x="-6" y="-4" width="1036" height="62" filterUnits="userSpaceOnUse"><feOffset dy="2" input="SourceAlpha"/><feGaussianBlur stdDeviation="2" result="b"/><feFlood flood-opacity="0.161"/><feComposite operator="in" in2="b"/><feComposite in="SourceGraphic"/></filter><clipPath id="c"><rect class="a" width="13" height="12"/></clipPath><clipPath id="e"><rect width="1024" height="88"/></clipPath></defs><g id="d" class="b"><rect class="c" width="1024" height="88"/><g class="j" transform="matrix(1, 0, 0, 1, 0, 0)"><rect class="c" width="1024" height="50"/></g><g transform="translate(-878)"><g transform="translate(9)"><circle class="d" cx="17" cy="17" r="17" transform="translate(1824 8)"/><circle class="c" cx="9" cy="9" r="9" transform="translate(1832 28)"/><circle class="c" cx="6" cy="6" r="6" transform="translate(1835 18)"/></g><path class="e" d="M7,0V7H0Z" transform="translate(1881.95 21) rotate(45)"/><g transform="translate(1716 24)"><path class="e" d="M54.434,0H3.165C1.266,0,0,1,0,2.4H0C0,3.8,1.266,4.8,3.038,4.8H54.307c1.772,0,3.038-1,3.038-2.4h0C57.345,1,56.079,0,54.434,0Z"/><path class="e" d="M93.14,0h-40C51.366,0,50.1,1,50.1,2.4h0c0,1.4,1.266,2.4,3.038,2.4h40c1.772,0,3.038-1,3.038-2.4h0C96.179,1,94.913,0,93.14,0Z" transform="translate(13.321)"/></g></g><g transform="translate(-1)"><rect class="f" width="179.485" height="40" transform="translate(81 6)"/><g transform="translate(123.505 29)"><path class="e" d="M58.91-8,50.681-27.54l-6.172,8.847-9.464-17.9L22.5-8Z" transform="translate(2 21)"/><circle class="e" cx="6" cy="6" r="6" transform="translate(57 -20)"/></g></g><g transform="translate(-1 1)"><rect class="f" width="50" height="40" transform="translate(16 4)"/><g class="g" transform="translate(35 18)"><g transform="translate(-34.5 -20.5)"><line class="h" x2="13" transform="translate(34.5 21.5)"/></g><g transform="translate(-34.5 -15.5)"><line class="h" x2="13" transform="translate(34.5 21.5)"/></g><g transform="translate(-34.5 -10.5)"><line class="h" x2="13" transform="translate(34.5 21.5)"/></g></g></g><path class="i" d="M15.621,14.4l-3.729-3.729a.365.365,0,0,0-.261-.108h-.405a6.388,6.388,0,1,0-.657.657v.405a.378.378,0,0,0,.108.261L14.4,15.621a.369.369,0,0,0,.522,0l.694-.694A.369.369,0,0,0,15.621,14.4ZM6.39,11.3A4.915,4.915,0,1,1,11.3,6.39,4.914,4.914,0,0,1,6.39,11.3Z" transform="translate(720.142 17.142)"/><path class="i" d="M8.17,32C3.657,32,0,34.971,0,38.638A5.892,5.892,0,0,0,1.819,42.81,8.119,8.119,0,0,1,.07,45.867a.254.254,0,0,0-.048.278.25.25,0,0,0,.233.153,7.3,7.3,0,0,0,4.487-1.64,9.733,9.733,0,0,0,3.428.619c4.513,0,8.17-2.971,8.17-6.638S12.683,32,8.17,32Z" transform="translate(795.015 -12.882)"/><path class="i" d="M13.329,11.245C12.646,10.562,11.8,9.711,11.8,6.39A4.916,4.916,0,0,0,7.691,1.541a.983.983,0,1,0-1.618,0A4.916,4.916,0,0,0,1.966,6.39c0,3.321-.849,4.172-1.533,4.856a1.476,1.476,0,0,0,1.043,2.517H4.915a1.966,1.966,0,0,0,3.932,0h3.439A1.476,1.476,0,0,0,13.329,11.245ZM6.881,14.5a.246.246,0,0,1,0,.492,1.23,1.23,0,0,1-1.229-1.229h.492A.738.738,0,0,0,6.881,14.5Z" transform="translate(761.548 17.142)"/><g transform="translate(346.9 26)"><g transform="translate(-63.9 -1)"><path class="e" d="M-21.888-1H-61.956A1.868,1.868,0,0,0-63.9.8h0a1.868,1.868,0,0,0,1.944,1.8H-22.1A1.868,1.868,0,0,0-20.16.8h0A1.629,1.629,0,0,0-21.888-1Z" transform="translate(63.9 1)"/><path class="e" d="M40.656-1H-17.556A1.868,1.868,0,0,0-19.5.8h0a1.868,1.868,0,0,0,1.944,1.8h58.1A1.868,1.868,0,0,0,42.492.8h0A1.659,1.659,0,0,0,40.656-1Z" transform="translate(67.452 1)"/></g><path class="e" d="M149.436-1H76.644A1.868,1.868,0,0,0,74.7.8h0a1.868,1.868,0,0,0,1.944,1.8H148.9A1.868,1.868,0,0,0,150.84.8h0C151.38-.2,150.516-1,149.436-1Z" transform="translate(11.088)"/><g transform="translate(196.38 -1)"><path class="e" d="M222.784-1h-43.74A1.868,1.868,0,0,0,177.1.8h0a1.868,1.868,0,0,0,1.944,1.8h43.524A1.868,1.868,0,0,0,224.512.8h0A1.578,1.578,0,0,0,222.784-1Z" transform="translate(-177.1 1)"/><path class="e" d="M248.668-1H226.744A1.868,1.868,0,0,0,224.8.8h0a1.868,1.868,0,0,0,1.944,1.8H248.56A1.868,1.868,0,0,0,250.5.8h0A1.659,1.659,0,0,0,248.668-1Z" transform="translate(-173.284 1)"/></g></g></g></svg>