<svg xmlns="http://www.w3.org/2000/svg" xmlns:xlink="http://www.w3.org/1999/xlink" viewBox="0 0 1024 88"><defs><style>.a,.j,.m{fill:none;}.b{clip-path:url(#e);}.c{fill:#fff;}.d{fill:#f4f5f6;}.e{fill:#707070;}.f{fill:#dedede;}.g{clip-path:url(#c);}.h{fill:rgba(0,0,0,0);stroke:#707070;stroke-width:2px;}.i{fill:#7f7f7f;}.j{stroke:#d9d9d9;}.k{fill:#2e5ea2;}.l{fill:#204371;}.m{stroke:#f5f5f5;}.n{fill:#55595c;}.o{stroke:none;}.p{filter:url(#a);}</style><filter id="a" x="-6" y="-4" width="1036" height="72" filterUnits="userSpaceOnUse"><feOffset dy="2" input="SourceAlpha"/><feGaussianBlur stdDeviation="2" result="b"/><feFlood flood-opacity="0.161"/><feComposite operator="in" in2="b"/><feComposite in="SourceGraphic"/></filter><clipPath id="c"><rect class="a" width="30" height="14"/></clipPath><clipPath id="e"><rect width="1024" height="88"/></clipPath></defs><g id="d" class="b"><rect class="c" width="1024" height="88"/><g class="p" transform="matrix(1, 0, 0, 1, 0, 0)"><rect class="c" width="1024" height="60"/></g><g transform="translate(-11 5)"><rect class="d" width="179.485" height="40" transform="translate(81 5)"/><g transform="translate(123.505 29)"><path class="e" d="M58.91-8,50.681-27.54l-6.172,8.847-9.464-17.9L22.5-8Z" transform="translate(2 21)"/><circle class="e" cx="6" cy="6" r="6" transform="translate(57 -20)"/></g></g><g transform="translate(-887 4)"><g transform="translate(9)"><circle class="f" cx="17" cy="17" r="17" transform="translate(1824 8)"/><circle class="c" cx="9" cy="9" r="9" transform="translate(1832 28)"/><circle class="c" cx="6" cy="6" r="6" transform="translate(1835 18)"/></g><path class="e" d="M7,0V7H0Z" transform="translate(1881.95 21) rotate(45)"/><g transform="translate(1716 24)"><path class="e" d="M54.434,0H3.165C1.266,0,0,1,0,2.4H0C0,3.8,1.266,4.8,3.038,4.8H54.307c1.772,0,3.038-1,3.038-2.4h0C57.345,1,56.079,0,54.434,0Z"/><path class="e" d="M93.14,0h-40C51.366,0,50.1,1,50.1,2.4h0c0,1.4,1.266,2.4,3.038,2.4h40c1.772,0,3.038-1,3.038-2.4h0C96.179,1,94.913,0,93.14,0Z" transform="translate(13.321)"/></g></g><g transform="translate(-1 1)"><g class="g" transform="translate(16 23)"><g transform="translate(-34.5 -20.5)"><line class="h" x2="13" transform="translate(34.5 21.5)"/></g><g transform="translate(-21.5 -20.5)"><line class="h" x2="13" transform="translate(34.5 21.5)"/></g><g transform="translate(-8.5 -20.5)"><line class="h" x2="13" transform="translate(34.5 21.5)"/></g><g transform="translate(-34.5 -14.5)"><line class="h" x2="13" transform="translate(34.5 21.5)"/></g><g transform="translate(-21.5 -14.5)"><line class="h" x2="13" transform="translate(34.5 21.5)"/></g><g transform="translate(-8.5 -14.5)"><line class="h" x2="13" transform="translate(34.5 21.5)"/></g><g transform="translate(-34.5 -8.5)"><line class="h" x2="13" transform="translate(34.5 21.5)"/></g><g transform="translate(-21.5 -8.5)"><line class="h" x2="13" transform="translate(34.5 21.5)"/></g><g transform="translate(-8.5 -8.5)"><line class="h" x2="13" transform="translate(34.5 21.5)"/></g></g></g><path class="i" d="M8.17,32C3.657,32,0,34.971,0,38.638A5.892,5.892,0,0,0,1.819,42.81,8.119,8.119,0,0,1,.07,45.867a.254.254,0,0,0-.048.278.25.25,0,0,0,.233.153,7.3,7.3,0,0,0,4.487-1.64,9.733,9.733,0,0,0,3.428.619c4.513,0,8.17-2.971,8.17-6.638S12.683,32,8.17,32Z" transform="translate(769.015 -7.882)"/><path class="i" d="M13.329,11.245C12.646,10.562,11.8,9.711,11.8,6.39A4.916,4.916,0,0,0,7.691,1.541a.983.983,0,1,0-1.618,0A4.916,4.916,0,0,0,1.966,6.39c0,3.321-.849,4.172-1.533,4.856a1.476,1.476,0,0,0,1.043,2.517H4.915a1.966,1.966,0,0,0,3.932,0h3.439A1.476,1.476,0,0,0,13.329,11.245ZM6.881,14.5a.246.246,0,0,1,0,.492,1.23,1.23,0,0,1-1.229-1.229h.492A.738.738,0,0,0,6.881,14.5Z" transform="translate(708.548 23.142)"/><g transform="translate(-18)"><g class="j" transform="translate(405 12)"><path class="o" d="M4,0H180a0,0,0,0,1,0,0V37a0,0,0,0,1,0,0H4a4,4,0,0,1-4-4V4A4,4,0,0,1,4,0Z"/><path class="a" d="M4,.5H179a.5.5,0,0,1,.5.5V36a.5.5,0,0,1-.5.5H4A3.5,3.5,0,0,1,.5,33V4A3.5,3.5,0,0,1,4,.5Z"/></g><path class="k" d="M0,0H41a4,4,0,0,1,4,4V34a0,0,0,0,1,0,0H0a0,0,0,0,1,0,0V0A0,0,0,0,1,0,0Z" transform="translate(584 12)"/><path class="l" d="M0,0H45a0,0,0,0,1,0,0V0a3,3,0,0,1-3,3H0A0,0,0,0,1,0,3V0A0,0,0,0,1,0,0Z" transform="translate(584 46)"/><path class="c" d="M15.621,14.4l-3.729-3.729a.365.365,0,0,0-.261-.108h-.405a6.388,6.388,0,1,0-.657.657v.405a.378.378,0,0,0,.108.261L14.4,15.621a.369.369,0,0,0,.522,0l.694-.694A.369.369,0,0,0,15.621,14.4ZM6.39,11.3A4.915,4.915,0,1,1,11.3,6.39,4.914,4.914,0,0,1,6.39,11.3Z" transform="translate(599 21)"/></g><line class="m" y2="60" transform="translate(684.5)"/><path class="n" d="M4.288,32.689v2.3a.689.689,0,0,1-.689.689H.689A.689.689,0,0,1,0,34.986v-2.3A.689.689,0,0,1,.689,32H3.6A.689.689,0,0,1,4.288,32.689ZM9.495,39.58v-2.3a.689.689,0,0,0-.689-.689H5.9a.689.689,0,0,0-.689.689v2.3a.689.689,0,0,0,.689.689h2.91A.689.689,0,0,0,9.495,39.58Zm.919-6.891v2.3a.689.689,0,0,0,.689.689h2.91a.689.689,0,0,0,.689-.689v-2.3A.689.689,0,0,0,14.012,32H11.1A.689.689,0,0,0,10.414,32.689Zm-.919,2.3v-2.3A.689.689,0,0,0,8.806,32H5.9a.689.689,0,0,0-.689.689v2.3a.689.689,0,0,0,.689.689h2.91A.689.689,0,0,0,9.495,34.986ZM3.6,36.594H.689A.689.689,0,0,0,0,37.283v2.3a.689.689,0,0,0,.689.689H3.6a.689.689,0,0,0,.689-.689v-2.3a.689.689,0,0,0-.689-.689ZM0,41.878v2.3a.689.689,0,0,0,.689.689H3.6a.689.689,0,0,0,.689-.689v-2.3a.689.689,0,0,0-.689-.689H.689A.689.689,0,0,0,0,41.878ZM11.1,40.27h2.91a.689.689,0,0,0,.689-.689v-2.3a.689.689,0,0,0-.689-.689H11.1a.689.689,0,0,0-.689.689v2.3A.689.689,0,0,0,11.1,40.27Zm0,4.594h2.91a.689.689,0,0,0,.689-.689v-2.3a.689.689,0,0,0-.689-.689H11.1a.689.689,0,0,0-.689.689v2.3A.689.689,0,0,0,11.1,44.864Zm-5.9-2.986v2.3a.689.689,0,0,0,.689.689h2.91a.689.689,0,0,0,.689-.689v-2.3a.689.689,0,0,0-.689-.689H5.9A.689.689,0,0,0,5.207,41.878Z" transform="translate(649.171 -7.85)"/><line class="m" y2="60" transform="translate(744.5)"/><line class="m" y2="60" transform="translate(804.5)"/><line class="m" y2="60" transform="translate(630.5)"/></g></svg>