<svg xmlns="http://www.w3.org/2000/svg" xmlns:xlink="http://www.w3.org/1999/xlink" width="1024" height="256" viewBox="0 0 1024 256">
  <defs>
    <clipPath id="clip-path">
      <rect width="1025" height="256" fill="none"/>
    </clipPath>
    <clipPath id="clip-path-2">
      <rect width="203.11" height="150.627" fill="none"/>
    </clipPath>
    <clipPath id="clip-quicklink-layout-3">
      <rect width="1024" height="256"/>
    </clipPath>
  </defs>
  <g id="quicklink-layout-3" clip-path="url(#clip-quicklink-layout-3)">
    <rect width="1024" height="256" fill="#fff"/>
    <g id="Item" clip-path="url(#clip-path)">
      <g id="Item-2" data-name="Item">
        <g id="Logo" transform="translate(46.147 39.604)" opacity="0.6">
          <g id="Symbol_2_3" data-name="Symbol 2 – 3" clip-path="url(#clip-path-2)" style="isolation: isolate">
            <path id="Path_1" data-name="Path 1" d="M188.686,93.919l-37.557-89.2L122.961,45.095,79.77-36.592,22.5,93.919Z" transform="translate(-22.495 56.708)" fill="#131111" opacity="0.2"/>
            <ellipse id="Ellipse_1" data-name="Ellipse 1" cx="27.383" cy="27.383" rx="27.383" ry="27.383" transform="translate(148.345)" fill="#131111" opacity="0.2"/>
          </g>
        </g>
        <rect id="Text_box" data-name="Text box" width="336" height="256" fill="#616161" opacity="0.32"/>
        <g id="Btn" transform="translate(51 158)">
          <rect id="Rectangle_4" data-name="Rectangle 4" width="181" height="46" fill="#2e5ea2"/>
          <path id="Path_7" data-name="Path 7" d="M72.822,0H3.625A3.471,3.471,0,0,0,0,3.625H0A3.471,3.471,0,0,0,3.625,7.25H72.5a3.471,3.471,0,0,0,3.625-3.625h0C76.554,1.493,74.955,0,72.822,0Z" transform="translate(52 19)" fill="#fff"/>
        </g>
        <rect id="Rectangle_9" data-name="Rectangle 9" width="247" height="22" transform="translate(51 41)" fill="#464040"/>
        <rect id="Rectangle_10" data-name="Rectangle 10" width="247" height="11" transform="translate(51 86)" fill="#777070"/>
        <rect id="Rectangle_10-2" data-name="Rectangle 10" width="162" height="11" transform="translate(51 105)" fill="#777070"/>
        <rect id="Rectangle_11" data-name="Rectangle 11" width="78" height="11" transform="translate(220 105)" fill="#777070"/>
        <rect id="Rectangle_10-3" data-name="Rectangle 10" width="52" height="11" transform="translate(51 124)" fill="#777070"/>
        <rect id="Rectangle_12" data-name="Rectangle 12" width="91" height="11" transform="translate(110 124)" fill="#777070"/>
        <rect id="Rectangle_13" data-name="Rectangle 13" width="90" height="11" transform="translate(208 124)" fill="#777070"/>
      </g>
      <g id="Item-3" data-name="Item" transform="translate(356)">
        <g id="Logo-2" data-name="Logo" transform="translate(46.147 39.604)" opacity="0.6">
          <g id="Symbol_2_3-2" data-name="Symbol 2 – 3" clip-path="url(#clip-path-2)" style="isolation: isolate">
            <path id="Path_1-2" data-name="Path 1" d="M188.686,93.919l-37.557-89.2L122.961,45.095,79.77-36.592,22.5,93.919Z" transform="translate(-22.495 56.708)" fill="#131111" opacity="0.2"/>
            <ellipse id="Ellipse_1-2" data-name="Ellipse 1" cx="27.383" cy="27.383" rx="27.383" ry="27.383" transform="translate(148.345)" fill="#131111" opacity="0.2"/>
          </g>
        </g>
        <rect id="Text_box-2" data-name="Text box" width="336" height="256" fill="#616161" opacity="0.32"/>
        <g id="Btn-2" data-name="Btn" transform="translate(51 158)">
          <rect id="Rectangle_4-2" data-name="Rectangle 4" width="181" height="46" fill="#2e5ea2"/>
          <path id="Path_7-2" data-name="Path 7" d="M72.822,0H3.625A3.471,3.471,0,0,0,0,3.625H0A3.471,3.471,0,0,0,3.625,7.25H72.5a3.471,3.471,0,0,0,3.625-3.625h0C76.554,1.493,74.955,0,72.822,0Z" transform="translate(52 19)" fill="#fff"/>
        </g>
        <rect id="Rectangle_9-2" data-name="Rectangle 9" width="247" height="22" transform="translate(51 41)" fill="#464040"/>
        <rect id="Rectangle_10-4" data-name="Rectangle 10" width="247" height="11" transform="translate(51 86)" fill="#777070"/>
        <rect id="Rectangle_10-5" data-name="Rectangle 10" width="162" height="11" transform="translate(51 105)" fill="#777070"/>
        <rect id="Rectangle_11-2" data-name="Rectangle 11" width="78" height="11" transform="translate(220 105)" fill="#777070"/>
        <rect id="Rectangle_10-6" data-name="Rectangle 10" width="52" height="11" transform="translate(51 124)" fill="#777070"/>
        <rect id="Rectangle_12-2" data-name="Rectangle 12" width="91" height="11" transform="translate(110 124)" fill="#777070"/>
        <rect id="Rectangle_13-2" data-name="Rectangle 13" width="90" height="11" transform="translate(208 124)" fill="#777070"/>
      </g>
      <g id="Item-4" data-name="Item" transform="translate(712)">
        <g id="Logo-3" data-name="Logo" transform="translate(46.147 39.604)" opacity="0.6">
          <g id="Symbol_2_3-3" data-name="Symbol 2 – 3" clip-path="url(#clip-path-2)" style="isolation: isolate">
            <path id="Path_1-3" data-name="Path 1" d="M188.686,93.919l-37.557-89.2L122.961,45.095,79.77-36.592,22.5,93.919Z" transform="translate(-22.495 56.708)" fill="#131111" opacity="0.2"/>
            <ellipse id="Ellipse_1-3" data-name="Ellipse 1" cx="27.383" cy="27.383" rx="27.383" ry="27.383" transform="translate(148.345)" fill="#131111" opacity="0.2"/>
          </g>
        </g>
        <rect id="Text_box-3" data-name="Text box" width="336" height="256" fill="#616161" opacity="0.32"/>
        <g id="Btn-3" data-name="Btn" transform="translate(51 158)">
          <rect id="Rectangle_4-3" data-name="Rectangle 4" width="181" height="46" fill="#2e5ea2"/>
          <path id="Path_7-3" data-name="Path 7" d="M72.822,0H3.625A3.471,3.471,0,0,0,0,3.625H0A3.471,3.471,0,0,0,3.625,7.25H72.5a3.471,3.471,0,0,0,3.625-3.625h0C76.554,1.493,74.955,0,72.822,0Z" transform="translate(52 19)" fill="#fff"/>
        </g>
        <rect id="Rectangle_9-3" data-name="Rectangle 9" width="247" height="22" transform="translate(51 41)" fill="#464040"/>
        <rect id="Rectangle_10-7" data-name="Rectangle 10" width="247" height="11" transform="translate(51 86)" fill="#777070"/>
        <rect id="Rectangle_10-8" data-name="Rectangle 10" width="162" height="11" transform="translate(51 105)" fill="#777070"/>
        <rect id="Rectangle_11-3" data-name="Rectangle 11" width="78" height="11" transform="translate(220 105)" fill="#777070"/>
        <rect id="Rectangle_10-9" data-name="Rectangle 10" width="52" height="11" transform="translate(51 124)" fill="#777070"/>
        <rect id="Rectangle_12-3" data-name="Rectangle 12" width="91" height="11" transform="translate(110 124)" fill="#777070"/>
        <rect id="Rectangle_13-3" data-name="Rectangle 13" width="90" height="11" transform="translate(208 124)" fill="#777070"/>
      </g>
    </g>
  </g>
</svg>
