<svg xmlns="http://www.w3.org/2000/svg" viewBox="0 0 745.73 256.5"><defs><style>.cls-1{fill:#1563ad;}.cls-2{fill:#e6650c;}.cls-3{fill:#789f2c;}</style></defs><title>Hubken Group</title><g id="Layer_2" data-name="Layer 2"><g id="Layer_1-2" data-name="Layer 1"><path class="cls-1" d="M321.25,70.08h36.37V28.38h21.31v105H357.62V88H321.25V133.4H299.94v-105h21.31Z"/><path class="cls-1" d="M457,133.4H438V127c-3.19,5.17-7.3,7.76-17.35,7.76-15.37,0-28-7.61-28-30V57.3h19.48v44.59c0,12,4.26,16.14,12.33,16.14,9,0,13.24-5.48,13.24-16V57.3H457Z"/><path class="cls-1" d="M486.53,62c4.11-4.42,9.9-6.09,16.44-6.09,18.27,0,30,11.87,30,34.7v9.13c0,20.86-9.9,35-30,35-7.46,0-12.79-2-16.44-5.93v4.56H468.12v-105h18.41Zm27.1,37.14V91.24c0-12.18-4-18.87-13.55-18.87s-13.55,6.69-13.55,18.87v7.92c0,11,3.35,19.17,13.55,19.17C510.58,118.33,513.63,110.11,513.63,99.16Z"/><path class="cls-1" d="M605.1,57.3,578.77,89.11l30.74,44.29H586.68l-20.85-28.61-5.18,6.39V133.4H541.17v-105h19.48V85L582,57.3Z"/><path class="cls-1" d="M670.85,121.83c-5.33,9.29-14.15,12.94-27.85,12.94-22.83,0-33.79-14.76-33.79-34.4V90c0-23,11.57-34.09,31.35-34.09,21.46,0,31.36,12.48,31.36,35.62v8.67H628.54c.15,10.5,3.5,18.11,14.3,18.11,8.07,0,10.66-2.43,13.55-6.54ZM628.54,86.37h23.89c-.45-9.89-4.41-14-11.72-14C633,72.37,629.3,77.69,628.54,86.37Z"/><path class="cls-1" d="M681.35,57.3h19v6.39c2.89-3.8,9-7.76,17.5-7.76,15.37,0,27.85,7.3,27.85,29.83V133.4H726.4V88.81c0-11.88-4.26-16.14-12.17-16.14-9,0-13.4,5.94-13.4,16V133.4H681.35Z"/><path class="cls-1" d="M294.72,189.42c0-16.2,8.11-25,22.26-25,8.56,0,14,2.74,17.24,8.1v-7.42h6.28V219.9c0,15.87-8.56,24.66-23.29,24.66-9.13,0-15.18-3-18.95-9.25l4.91-3.54c3.08,4.91,7.76,7,14.38,7,11.53,0,16.67-7.54,16.67-18.84v-4.68c-3.2,5.25-8.68,7.65-17.24,7.65-14.84,0-22.26-9.59-22.26-25.23Zm39.5,8.34v-9c0-11.19-4.91-18.49-16.78-18.49-10.85,0-16.44,6.73-16.44,19.17v8.22c0,12,5.37,19.41,16.44,19.41C330.22,217.05,334.22,208.94,334.22,197.76Z"/><path class="cls-1" d="M359.33,187.83v34.36h-6.28V165.11h6.28v7.76c2.4-5.25,7.19-8.44,14.38-8.44,7.42,0,12.33,2.85,16.1,7.87l-5.25,3.88c-3-3.88-6.39-5.82-11.42-5.82C364.24,170.36,359.33,177.44,359.33,187.83Z"/><path class="cls-1" d="M413.67,222.87c-14.73,0-23.18-9.13-23.18-25.11v-8.34c0-16.2,8.57-25,23.18-25s23.17,8.79,23.17,25v8.34C436.84,213.28,429,222.87,413.67,222.87Zm16.89-33.45c0-12.44-6.05-19.17-16.89-19.17s-16.9,6.73-16.9,19.17v8.34c0,12,5.37,19.29,16.9,19.29,11.07,0,16.89-7.31,16.89-19.29Z"/><path class="cls-1" d="M490.6,222.19h-6.27v-7.65c-3.09,5.36-8.34,8.33-16.9,8.33-12.67,0-20.89-7.76-20.89-24V165.11h6.28V198.9c0,12.9,6.51,18,15.3,18,10.84,0,16.21-7.19,16.21-17.57V165.11h6.27Z"/><path class="cls-1" d="M548.93,197.64c0,15.64-7.42,25.23-22.26,25.23-8.67,0-14-2.4-17.23-7.42v28.42h-6.28V165.11h6.28v7.19c3.19-5.13,8.56-7.87,17.23-7.87,14.16,0,22.26,8.79,22.26,25Zm-6.28,0v-8.22c0-12.44-5.59-19.17-16.43-19.17-12.1,0-16.78,7.3-16.78,18.49v9.93c.11,10.73,4.22,18.38,16.78,18.38C537.18,217.05,542.65,209.63,542.65,197.64Z"/><path class="cls-1" d="M222.66,222.66H28.16V28.16h194.5ZM64.9,185.92h121V64.9H64.9Z"/><path class="cls-2" d="M195.14,0h0A61.9,61.9,0,0,1,257,61.9v0a61.9,61.9,0,0,1-61.9,61.9h-61.9a0,0,0,0,1,0,0V61.9A61.9,61.9,0,0,1,195.14,0Z"/><path class="cls-3" d="M61.9,132.69h0a61.9,61.9,0,0,1,61.9,61.9v0a61.9,61.9,0,0,1-61.9,61.9H0a0,0,0,0,1,0,0v-61.9A61.9,61.9,0,0,1,61.9,132.69Z" transform="translate(123.81 389.18) rotate(-180)"/></g></g></svg>